<svg class="border shadow-md" viewBox="0 0 638 638" style="width: 638px; height: 638px;" xmlns="http://www.w3.org/2000/svg" preserveAspectRatio="none"><rect class="bg" id="bg" x="0" y="0" width="638" height="638" fill="#ffffff"/><g transform="rotate(0 319 319)"><path d="M -419.00 -33.80 S -219.50 -69.80&#10;            0.00 -33.80 199.50 -65.70&#10;            419.00 -33.80 618.50 -65.70&#10;            838.00 -33.80 1037.50 -89.80&#10;            1257.00 -33.80 h 110 V 838 H -419.00 Z" fill="#FFFFFF" id="-1"/><path d="M -419.00 30.00 S -345.00 -27.00&#10;            0.00 30.00 199.50 -1.90&#10;            419.00 30.00 440.00 -7.00&#10;            838.00 30.00 918.00 -14.00&#10;            1257.00 30.00 h 110 V 838 H -419.00 Z" fill="#f2faf9" id="0"/><path d="M -419.00 93.80 S -379.00 61.90&#10;            0.00 93.80 199.50 61.90&#10;            419.00 93.80 618.50 61.90&#10;            838.00 93.80 913.00 56.80&#10;            1257.00 93.80 h 110 V 838 H -419.00 Z" fill="#e5f5f3" id="1"/><path d="M -419.00 157.60 S -219.50 125.70&#10;            0.00 157.60 195.00 125.60&#10;            419.00 157.60 618.50 125.70&#10;            838.00 157.60 1037.50 125.70&#10;            1257.00 157.60 h 110 V 838 H -419.00 Z" fill="#d8f0ed" id="2"/><path d="M -419.00 221.40 S -219.50 174.40&#10;            0.00 221.40 199.50 189.50&#10;            419.00 221.40 618.50 189.50&#10;            838.00 221.40 1037.50 189.50&#10;            1257.00 221.40 h 110 V 838 H -419.00 Z" fill="#cbebe7" id="3"/><path d="M -419.00 285.20 S -228.00 236.20&#10;            0.00 285.20 199.50 253.30&#10;            419.00 285.20 583.00 253.30&#10;            838.00 285.20 975.00 230.20&#10;            1257.00 285.20 h 110 V 838 H -419.00 Z" fill="#bee6e1" id="4"/><path d="M -419.00 349.00 S -272.00 317.10&#10;            0.00 349.00 199.50 291.00&#10;            419.00 349.00 618.50 317.10&#10;            838.00 349.00 1037.50 301.00&#10;            1257.00 349.00 h 110 V 838 H -419.00 Z" fill="#b1e1db" id="5"/><path d="M -419.00 412.80 S -219.50 371.80&#10;            0.00 412.80 28.00 380.90&#10;            419.00 412.80 618.50 369.80&#10;            838.00 412.80 1037.50 365.80&#10;            1257.00 412.80 h 110 V 838 H -419.00 Z" fill="#a4dcd5" id="6"/><path d="M -419.00 476.60 S -219.50 419.60&#10;            0.00 476.60 87.00 444.70&#10;            419.00 476.60 618.50 431.60&#10;            838.00 476.60 1037.50 444.70&#10;            1257.00 476.60 h 110 V 838 H -419.00 Z" fill="#97d7cf" id="7"/><path d="M -419.00 540.40 S -219.50 508.50&#10;            0.00 540.40 199.50 484.40&#10;            419.00 540.40 618.50 508.50&#10;            838.00 540.40 1023.00 504.40&#10;            1257.00 540.40 h 110 V 838 H -419.00 Z" fill="#8ad2c9" id="8"/><path d="M -419.00 604.20 S -239.00 572.30&#10;            0.00 604.20 199.50 572.30&#10;            419.00 604.20 521.00 572.30&#10;            838.00 604.20 1008.00 566.20&#10;            1257.00 604.20 h 110 V 838 H -419.00 Z" fill="#7dcdc3" id="9"/></g></svg>